# xmcd CD database file
#
# Track frame offsets:
#	150
#	13796
#	29073
#	40923
#	55072
#	67428
#	80975
#	95296
#	112278
#	126896
#	139207
#	151195
#	164574
#	186691
#	199047
#	212592
#	229579
#
# Disc length: 3216 seconds
#
# Revision: 0
# Processed by: cddbd v1.4PL0 Copyright (c) Steve Scherf et al.
# Submitted via: CDex 1.40PlusFr
#
DISCID=060c8e11
DTITLE=diabolo - harmonica raod
DYEAR=2000
DGENRE=Country
TTITLE0=sweet home chicago
TTITLE1=l'homme a l'harmonica
TTITLE2=railroad track blues
TTITLE3=mc blues
TTITLE4=blowin'in the wind
TTITLE5=casino blues
TTITLE6=fast train boogie
TTITLE7=around the blues song
TTITLE8=don't care song 
TTITLE9=fait d'hiver
TTITLE10=got you on my mind
TTITLE11=many blues
TTITLE12=sweet home chicago (playback)
TTITLE13=blowin'in the wind (playback)
TTITLE14=casino blues (playback)
TTITLE15=around the blues song (playback)
TTITLE16=got you on my mind (playback)
EXTD=YEAR: 2000 ID3G: 2
EXTT0=
EXTT1=
EXTT2=
EXTT3=
EXTT4=
EXTT5=
EXTT6=
EXTT7=
EXTT8=
EXTT9=
EXTT10=
EXTT11=
EXTT12=
EXTT13=
EXTT14=
EXTT15=
EXTT16=
PLAYORDER=
